# xmcd
#
# Track frame offsets: 
#        150
#        14977
#        28437
#        47095
#        61195
#        73157
#        83427
#        96487
#        107877
#        115687
#        124942
#        134715
#        144762
#        155227
#        174725
#        184415
#        190412
#        200895
#        222870
#        233067
#        244102
#        256125
#        264710
#        274235
#        279605
#        289430
#        306762
#        318170
#
# Disc length: 4410 seconds
#
# Revision: 0
# Processed by: cddbd v1.4PL0 Copyright (c) Steve Scherf et al.
# Submitted via: ExactAudioCopy v0.90b4
#
DISCID=c611381c
DTITLE=Various Artist - The Big 'D' Jamboree Live,  Disc 2: Rockabill
DTITLE=billies
DYEAR=2000
DGENRE=Country
TTITLE0=Carl Perkins - That's All Right
TTITLE1=Carl Perkins - Blue Suede Shoes
TTITLE2=Carl Perkins - Slippin' and Slidin'
TTITLE3=Carl Perkins - I Got a Woman
TTITLE4=Carl Perkins - Everybody's Tryin' To Be My Baby
TTITLE5=Johnny Carroll - Suzy Q
TTITLE6=Johnny Carroll - I'll Wait
TTITLE7=The Belew Twins - Hot Dog Buddy Buddy
TTITLE8=The Belew Twins - Black Slacks
TTITLE9=The Belew Twins/ A Red Cadillac and a Black Mustache
TTITLE10=The Belew Twins - Rockin' Bones
TTITLE11="Groovey" Joe Poovey - Move Around
TTITLE12=Tommy Mitchell - Too Much
TTITLE13=Warren Smith - Black Jack David
TTITLE14=Warren Smith - Hound Dog
TTITLE15=Warren Smith - Rock and Roll Ruby
TTITLE16=Jerry Reed - Mr. Whizz
TTITLE17=Sid King and the Five Strings - Booger Red
TTITLE18=Werly Fairburn - All By Myself
TTITLE19=Johnny Dollar - Great Balls of Fire
TTITLE20=Orville Couch - Teenage Queen
TTITLE21=Orville Couch - Easy Does It
TTITLE22=Ronnie Dee and the D Men - 30 Days
TTITLE23=Ronnie Dee and the D Men - Johnny B. Goode
TTITLE24=Gene Vincent and His Blue Caps - Blue Jean Bop
TTITLE25=Gene Vincent and His Blue Caps - Whole Lotta Shakin' Goin' On
TTITLE26=Gene Vincent and His Blue Caps - Dance to the Bop
TTITLE27=Tennessee Ernie Ford - (Armed Forces PSA)
EXTD=
EXTT0=
EXTT1=
EXTT2=
EXTT3=
EXTT4=
EXTT5=
EXTT6=
EXTT7=
EXTT8=
EXTT9=
EXTT10=
EXTT11=
EXTT12=
EXTT13=
EXTT14=
EXTT15=
EXTT16=
EXTT17=
EXTT18=
EXTT19=
EXTT20=
EXTT21=
EXTT22=
EXTT23=
EXTT24=
EXTT25=
EXTT26=
EXTT27=
PLAYORDER=
